<?xml version="1.0" encoding="UTF-8"?>
<svg xmlns="http://www.w3.org/2000/svg" version="1.1" xmlns:xlink="http://www.w3.org/1999/xlink" viewBox="0 0 2599 1733">
  <defs>
    <radialGradient id="radial-gradient" cx="1299.038" cy="866.025" fx="1299.038" fy="866.025" r="1103.97" gradientUnits="userSpaceOnUse">
      <stop offset=".107" stop-color="#004356"/>
      <stop offset=".24" stop-color="#003647"/>
      <stop offset=".522" stop-color="#00222f"/>
      <stop offset=".783" stop-color="#001521"/>
      <stop offset="1" stop-color="#00111c"/>
    </radialGradient>
    <radialGradient id="radial-gradient-2" cx="1299.038" cy="860.788" fx="1299.038" fy="860.788" r="641.987" gradientUnits="userSpaceOnUse">
      <stop offset=".692" stop-color="#071421"/>
      <stop offset=".763" stop-color="#081625"/>
      <stop offset=".835" stop-color="#0d1f31"/>
      <stop offset=".907" stop-color="#162e45"/>
      <stop offset=".98" stop-color="#224361"/>
      <stop offset="1" stop-color="#264a6b"/>
    </radialGradient>
    <radialGradient id="radial-gradient-3" cx="1299.038" cy="860.788" fx="1299.038" fy="860.788" r="641.987" gradientUnits="userSpaceOnUse">
      <stop offset=".692" stop-color="#000"/>
      <stop offset=".75" stop-color="#040404"/>
      <stop offset=".809" stop-color="#101010"/>
      <stop offset=".869" stop-color="#242424"/>
      <stop offset=".929" stop-color="#404040"/>
      <stop offset=".988" stop-color="#656565"/>
      <stop offset="1" stop-color="#6d6d6d"/>
    </radialGradient>
    <radialGradient id="radial-gradient-4" cx="1426.925" cy="509.413" fx="1426.925" fy="509.413" r="2037.315" gradientUnits="userSpaceOnUse">
      <stop offset=".067" stop-color="silver"/>
      <stop offset=".294" stop-color="#4c4c4c"/>
      <stop offset=".349" stop-color="#404040"/>
      <stop offset=".512" stop-color="#242424"/>
      <stop offset=".676" stop-color="#101010"/>
      <stop offset=".839" stop-color="#040404"/>
      <stop offset="1" stop-color="#000"/>
    </radialGradient>
    <radialGradient id="radial-gradient-5" cx="1426.9" cy="509.419" fx="1426.9" fy="509.419" r="2037.226" xlink:href="#radial-gradient-4"/>
    <radialGradient id="radial-gradient-6" cx="1426.901" cy="509.408" fx="1426.901" fy="509.408" r="2037.21" xlink:href="#radial-gradient-4"/>
    <radialGradient id="radial-gradient-7" cx="1426.912" cy="509.413" fx="1426.912" fy="509.413" r="2037.263" xlink:href="#radial-gradient-4"/>
    <radialGradient id="radial-gradient-8" cx="1426.918" cy="509.41" fx="1426.918" fy="509.41" r="2037.281" xlink:href="#radial-gradient-4"/>
    <radialGradient id="radial-gradient-9" cx="1426.9" cy="509.421" fx="1426.9" fy="509.421" r="2037.229" xlink:href="#radial-gradient-4"/>
    <radialGradient id="radial-gradient-10" cx="1426.913" cy="509.418" fx="1426.913" fy="509.418" r="2037.277" xlink:href="#radial-gradient-4"/>
    <radialGradient id="radial-gradient-11" cx="1426.912" cy="509.42" fx="1426.912" fy="509.42" r="2037.274" xlink:href="#radial-gradient-4"/>
    <radialGradient id="radial-gradient-12" cx="1426.913" cy="509.416" fx="1426.913" fy="509.416" r="2037.276" xlink:href="#radial-gradient-4"/>
    <radialGradient id="radial-gradient-13" cx="1426.928" cy="509.416" fx="1426.928" fy="509.416" r="2037.334" xlink:href="#radial-gradient-4"/>
    <radialGradient id="radial-gradient-14" cx="1426.91" cy="509.417" fx="1426.91" fy="509.417" r="2037.265" xlink:href="#radial-gradient-4"/>
    <radialGradient id="radial-gradient-15" cx="1426.908" cy="509.415" fx="1426.908" fy="509.415" r="2037.249" xlink:href="#radial-gradient-4"/>
    <radialGradient id="radial-gradient-16" cx="1426.909" cy="509.418" fx="1426.909" fy="509.418" r="2037.265" xlink:href="#radial-gradient-4"/>
    <radialGradient id="radial-gradient-17" cx="1426.908" cy="509.415" fx="1426.908" fy="509.415" r="2037.251" xlink:href="#radial-gradient-4"/>
    <radialGradient id="radial-gradient-18" cx="1426.911" cy="509.416" fx="1426.911" fy="509.416" r="2037.266" xlink:href="#radial-gradient-4"/>
    <radialGradient id="radial-gradient-19" cx="1426.935" cy="509.452" fx="1426.935" fy="509.452" r="2037.423" xlink:href="#radial-gradient-4"/>
    <radialGradient id="radial-gradient-20" cx="1426.914" cy="509.422" fx="1426.914" fy="509.422" r="2037.304" xlink:href="#radial-gradient-4"/>
    <radialGradient id="radial-gradient-21" cx="1426.906" cy="509.412" fx="1426.906" fy="509.412" r="2037.232" xlink:href="#radial-gradient-4"/>
    <radialGradient id="radial-gradient-22" cx="1426.912" cy="509.417" fx="1426.912" fy="509.417" r="2037.272" xlink:href="#radial-gradient-4"/>
    <radialGradient id="radial-gradient-23" cx="1426.913" cy="509.413" fx="1426.913" fy="509.413" r="2037.266" xlink:href="#radial-gradient-4"/>
    <radialGradient id="radial-gradient-24" cx="1426.912" cy="509.422" fx="1426.912" fy="509.422" r="2037.284" xlink:href="#radial-gradient-4"/>
    <radialGradient id="radial-gradient-25" cx="1426.919" cy="509.425" fx="1426.919" fy="509.425" r="2037.319" xlink:href="#radial-gradient-4"/>
    <radialGradient id="radial-gradient-26" cx="1426.909" cy="509.411" fx="1426.909" fy="509.411" r="2037.239" xlink:href="#radial-gradient-4"/>
    <radialGradient id="radial-gradient-27" cx="1426.911" cy="509.416" fx="1426.911" fy="509.416" r="2037.264" xlink:href="#radial-gradient-4"/>
    <radialGradient id="radial-gradient-28" cx="1426.911" cy="509.411" fx="1426.911" fy="509.411" r="2037.252" xlink:href="#radial-gradient-4"/>
    <radialGradient id="radial-gradient-29" cx="1426.91" cy="509.417" fx="1426.91" fy="509.417" r="2037.263" xlink:href="#radial-gradient-4"/>
    <radialGradient id="radial-gradient-30" cx="1426.911" cy="509.417" fx="1426.911" fy="509.417" r="2037.264" xlink:href="#radial-gradient-4"/>
    <radialGradient id="radial-gradient-31" cx="1426.918" cy="509.415" fx="1426.918" fy="509.415" r="2037.235" xlink:href="#radial-gradient-4"/>
    <radialGradient id="radial-gradient-32" cx="1426.921" cy="509.418" fx="1426.921" fy="509.418" r="2037.23" xlink:href="#radial-gradient-4"/>
    <radialGradient id="radial-gradient-33" cx="1426.91" cy="509.417" fx="1426.91" fy="509.417" r="2037.266" xlink:href="#radial-gradient-4"/>
    <radialGradient id="radial-gradient-34" cx="1426.914" cy="509.417" fx="1426.914" fy="509.417" r="2037.275" xlink:href="#radial-gradient-4"/>
    <radialGradient id="radial-gradient-35" cx="1426.913" cy="509.422" fx="1426.913" fy="509.422" r="2037.241" xlink:href="#radial-gradient-4"/>
    <radialGradient id="radial-gradient-36" cx="1426.91" cy="509.418" fx="1426.91" fy="509.418" r="2037.26" xlink:href="#radial-gradient-4"/>
    <radialGradient id="radial-gradient-37" cx="1426.906" cy="509.419" fx="1426.906" fy="509.419" r="2037.28" xlink:href="#radial-gradient-4"/>
    <radialGradient id="radial-gradient-38" cx="1426.912" cy="509.419" fx="1426.912" fy="509.419" r="2037.254" xlink:href="#radial-gradient-4"/>
    <radialGradient id="radial-gradient-39" cx="1426.918" cy="509.414" fx="1426.918" fy="509.414" r="2037.242" xlink:href="#radial-gradient-4"/>
    <radialGradient id="radial-gradient-40" cx="1426.91" cy="509.417" fx="1426.91" fy="509.417" r="2037.263" xlink:href="#radial-gradient-4"/>
    <radialGradient id="radial-gradient-41" cx="1426.909" cy="509.417" fx="1426.909" fy="509.417" r="2037.259" xlink:href="#radial-gradient-4"/>
    <radialGradient id="radial-gradient-42" cx="1426.912" cy="509.417" fx="1426.912" fy="509.417" r="2037.27" xlink:href="#radial-gradient-4"/>
    <radialGradient id="radial-gradient-43" cx="1426.908" cy="509.418" fx="1426.908" fy="509.418" r="2037.25" xlink:href="#radial-gradient-4"/>
    <radialGradient id="radial-gradient-44" cx="1426.908" cy="509.416" fx="1426.908" fy="509.416" r="2037.253" xlink:href="#radial-gradient-4"/>
    <radialGradient id="radial-gradient-45" cx="1426.911" cy="509.417" fx="1426.911" fy="509.417" r="2037.265" xlink:href="#radial-gradient-4"/>
    <radialGradient id="radial-gradient-46" cx="1426.927" cy="509.415" fx="1426.927" fy="509.415" r="2037.308" xlink:href="#radial-gradient-4"/>
    <radialGradient id="radial-gradient-47" cx="1426.904" cy="509.421" fx="1426.904" fy="509.421" r="2037.336" xlink:href="#radial-gradient-4"/>
    <radialGradient id="radial-gradient-48" cx="1426.911" cy="509.417" fx="1426.911" fy="509.417" r="2037.262" xlink:href="#radial-gradient-4"/>
    <radialGradient id="radial-gradient-49" cx="1426.91" cy="509.417" fx="1426.91" fy="509.417" r="2037.264" xlink:href="#radial-gradient-4"/>
    <radialGradient id="radial-gradient-50" cx="1426.904" cy="509.416" fx="1426.904" fy="509.416" r="2037.244" xlink:href="#radial-gradient-4"/>
    <radialGradient id="radial-gradient-51" cx="1426.91" cy="509.416" fx="1426.91" fy="509.416" r="2037.251" xlink:href="#radial-gradient-4"/>
    <radialGradient id="radial-gradient-52" cx="1426.913" cy="509.416" fx="1426.913" fy="509.416" r="2037.27" xlink:href="#radial-gradient-4"/>
    <radialGradient id="radial-gradient-53" cx="1426.912" cy="509.415" fx="1426.912" fy="509.415" r="2037.274" xlink:href="#radial-gradient-4"/>
    <radialGradient id="radial-gradient-54" cx="1426.909" cy="509.418" fx="1426.909" fy="509.418" r="2037.256" xlink:href="#radial-gradient-4"/>
    <radialGradient id="radial-gradient-55" cx="1426.91" cy="509.418" fx="1426.91" fy="509.418" r="2037.261" xlink:href="#radial-gradient-4"/>
    <radialGradient id="radial-gradient-56" cx="1426.91" cy="509.417" fx="1426.91" fy="509.417" r="2037.264" xlink:href="#radial-gradient-4"/>
    <radialGradient id="radial-gradient-57" cx="1426.915" cy="509.422" fx="1426.915" fy="509.422" r="2037.257" xlink:href="#radial-gradient-4"/>
    <radialGradient id="radial-gradient-58" cx="1426.97" cy="509.38" fx="1426.97" fy="509.38" r="2037.429" xlink:href="#radial-gradient-4"/>
    <radialGradient id="radial-gradient-59" cx="1426.912" cy="509.405" fx="1426.912" fy="509.405" r="2037.301" xlink:href="#radial-gradient-4"/>
    <linearGradient id="linear-gradient" x1="393.267" y1="1343.614" x2="393.267" y2="960.283" gradientUnits="userSpaceOnUse">
      <stop offset="0" stop-color="#212121"/>
      <stop offset=".26" stop-color="#17525f"/>
      <stop offset=".62" stop-color="#0a91b0"/>
      <stop offset=".875" stop-color="#03b9e3"/>
      <stop offset="1" stop-color="#00c9f7"/>
    </linearGradient>
    <linearGradient id="linear-gradient-2" x1="2160.962" y1="542.475" x2="2160.962" y2="245.701" xlink:href="#linear-gradient"/>
    <linearGradient id="linear-gradient-3" x1="2090.249" y1="609.223" x2="2090.249" y2="266.078" xlink:href="#linear-gradient"/>
    <linearGradient id="linear-gradient-4" x1="2019.543" y1="587.721" x2="2019.543" y2="161.111" xlink:href="#linear-gradient"/>
    <linearGradient id="linear-gradient-5" x1="1948.837" y1="593.536" x2="1948.837" y2="239.96" xlink:href="#linear-gradient"/>
    <linearGradient id="linear-gradient-6" x1="1878.13" y1="616.529" x2="1878.13" y2="421.771" xlink:href="#linear-gradient"/>
    <linearGradient id="linear-gradient-7" x1="1807.424" y1="612.911" x2="1807.424" y2="327.731" xlink:href="#linear-gradient"/>
    <linearGradient id="linear-gradient-8" x1="1736.712" y1="782.201" x2="1736.712" y2="281.395" xlink:href="#linear-gradient"/>
    <linearGradient id="linear-gradient-9" x1="1666.006" y1="1021.642" x2="1666.006" y2="261.159" xlink:href="#linear-gradient"/>
    <linearGradient id="linear-gradient-10" x1="1595.299" y1="1430.408" x2="1595.299" y2="363.877" xlink:href="#linear-gradient"/>
    <linearGradient id="linear-gradient-11" x1="1524.593" y1="1255.183" x2="1524.593" y2="828.569" xlink:href="#linear-gradient"/>
    <linearGradient id="linear-gradient-12" x1="1453.886" y1="1219.21" x2="1453.886" y2="718.404" xlink:href="#linear-gradient"/>
    <linearGradient id="linear-gradient-13" x1="1383.174" y1="1092.251" x2="1383.174" y2="633.179" xlink:href="#linear-gradient"/>
    <linearGradient id="linear-gradient-14" x1="1312.467" y1="1143.33" x2="1312.467" y2="642.524" xlink:href="#linear-gradient"/>
    <linearGradient id="linear-gradient-15" x1="1241.761" y1="851.85" x2="1241.761" y2="632.36" xlink:href="#linear-gradient"/>
    <linearGradient id="linear-gradient-16" x1="1171.055" y1="1040.682" x2="1171.055" y2="572.337" xlink:href="#linear-gradient"/>
    <linearGradient id="linear-gradient-17" x1="1100.342" y1="1019.043" x2="1100.342" y2="810.374" xlink:href="#linear-gradient"/>
    <linearGradient id="linear-gradient-18" x1="1029.636" y1="1176.633" x2="1029.636" y2="777.843" xlink:href="#linear-gradient"/>
    <linearGradient id="linear-gradient-19" x1="958.93" y1="1341.462" x2="958.93" y2="747.914" xlink:href="#linear-gradient"/>
    <linearGradient id="linear-gradient-20" x1="888.223" x2="888.223" xlink:href="#linear-gradient"/>
    <linearGradient id="linear-gradient-21" x1="817.517" y1="1259.585" x2="817.517" y2="1117.383" xlink:href="#linear-gradient"/>
    <linearGradient id="linear-gradient-22" x1="746.805" y1="1593.551" x2="746.805" y2="740.326" xlink:href="#linear-gradient"/>
    <linearGradient id="linear-gradient-23" x1="676.098" y1="1253.216" x2="676.098" y2="962.626" xlink:href="#linear-gradient"/>
    <linearGradient id="linear-gradient-24" x1="605.392" y1="1472.517" x2="605.392" y2="891.335" xlink:href="#linear-gradient"/>
    <linearGradient id="linear-gradient-25" x1="534.685" y1="1534.626" x2="534.685" y2="947.262" xlink:href="#linear-gradient"/>
    <linearGradient id="linear-gradient-26" x1="463.979" y1="1313.639" x2="463.979" y2="930.306" xlink:href="#linear-gradient"/>
    <linearGradient id="linear-gradient-27" y1="1210.031" y2="1093.87" xlink:href="#linear-gradient"/>
    <linearGradient id="linear-gradient-28" x1="2160.962" y1="439.056" x2="2160.962" y2="349.124" xlink:href="#linear-gradient"/>
    <linearGradient id="linear-gradient-29" x1="2090.249" y1="489.641" x2="2090.249" y2="385.657" xlink:href="#linear-gradient"/>
    <linearGradient id="linear-gradient-30" x1="2019.543" y1="439.056" x2="2019.543" y2="309.78" xlink:href="#linear-gradient"/>
    <linearGradient id="linear-gradient-31" x1="1948.837" y1="470.322" x2="1948.837" y2="363.175" xlink:href="#linear-gradient"/>
    <linearGradient id="linear-gradient-32" x1="1878.13" y1="548.66" x2="1878.13" y2="489.641" xlink:href="#linear-gradient"/>
    <linearGradient id="linear-gradient-33" x1="1807.424" y1="513.53" x2="1807.424" y2="427.11" xlink:href="#linear-gradient"/>
    <linearGradient id="linear-gradient-34" x1="1736.712" y1="607.676" x2="1736.712" y2="455.917" xlink:href="#linear-gradient"/>
    <linearGradient id="linear-gradient-35" x1="1666.006" y1="756.627" x2="1666.006" y2="526.177" xlink:href="#linear-gradient"/>
    <linearGradient id="linear-gradient-36" x1="1595.299" y1="1058.74" x2="1595.299" y2="735.548" xlink:href="#linear-gradient"/>
    <linearGradient id="linear-gradient-37" x1="1524.593" y1="1106.514" x2="1524.593" y2="977.238" xlink:href="#linear-gradient"/>
    <linearGradient id="linear-gradient-38" x1="1453.886" y1="1044.688" x2="1453.886" y2="892.927" xlink:href="#linear-gradient"/>
    <linearGradient id="linear-gradient-39" x1="1383.174" y1="932.274" x2="1383.174" y2="793.16" xlink:href="#linear-gradient"/>
    <linearGradient id="linear-gradient-40" x1="1312.468" y1="968.808" x2="1312.468" y2="817.049" xlink:href="#linear-gradient"/>
    <linearGradient id="linear-gradient-41" x1="1241.761" y1="775.362" x2="1241.761" y2="708.849" xlink:href="#linear-gradient"/>
    <linearGradient id="linear-gradient-42" x1="1171.055" y1="877.472" x2="1171.055" y2="735.548" xlink:href="#linear-gradient"/>
    <linearGradient id="linear-gradient-43" x1="1100.342" y1="946.325" x2="1100.342" y2="883.092" xlink:href="#linear-gradient"/>
    <linearGradient id="linear-gradient-44" x1="1029.636" y1="1037.661" x2="1029.636" y2="916.815" xlink:href="#linear-gradient"/>
    <linearGradient id="linear-gradient-45" x1="958.929" y1="1134.617" x2="958.929" y2="954.756" xlink:href="#linear-gradient"/>
    <linearGradient id="linear-gradient-46" x1="888.223" y1="1210.031" x2="888.223" y2="1093.87" xlink:href="#linear-gradient"/>
    <linearGradient id="linear-gradient-47" x1="817.517" y1="1210.031" x2="817.517" y2="1166.937" xlink:href="#linear-gradient"/>
    <linearGradient id="linear-gradient-48" x1="746.805" y1="1296.213" x2="746.805" y2="1037.661" xlink:href="#linear-gradient"/>
    <linearGradient id="linear-gradient-49" x1="676.098" y1="1151.949" x2="676.098" y2="1063.89" xlink:href="#linear-gradient"/>
    <linearGradient id="linear-gradient-50" x1="605.392" y1="1269.984" x2="605.392" y2="1093.87" xlink:href="#linear-gradient"/>
    <linearGradient id="linear-gradient-51" x1="534.685" y1="1329.939" x2="534.685" y2="1151.949" xlink:href="#linear-gradient"/>
    <linearGradient id="linear-gradient-52" x1="463.979" y1="1180.052" x2="463.979" y2="1063.89" xlink:href="#linear-gradient"/>
    <clipPath id="clippath">
      <rect width="2598.076" height="1732.051" style="fill: none;"/>
    </clipPath>
    <radialGradient id="radial-gradient-60" cx="1501.108" cy="-679.868" fx="1501.108" fy="-679.868" r="4254.574" gradientUnits="userSpaceOnUse">
      <stop offset="0" stop-color="#004145"/>
      <stop offset=".123" stop-color="#002c2e"/>
      <stop offset=".282" stop-color="#00181a"/>
      <stop offset=".461" stop-color="#000a0b"/>
      <stop offset=".672" stop-color="#000202"/>
      <stop offset="1" stop-color="#000"/>
    </radialGradient>
    <radialGradient id="radial-gradient-61" cx="1501.109" cy="-679.793" fx="1501.109" fy="-679.793" r="4254.473" xlink:href="#radial-gradient-60"/>
    <radialGradient id="radial-gradient-62" cx="1501.109" cy="-679.801" fx="1501.109" fy="-679.801" r="4254.473" xlink:href="#radial-gradient-60"/>
    <radialGradient id="radial-gradient-63" cx="1501.109" cy="-679.809" fx="1501.109" fy="-679.809" r="4254.475" xlink:href="#radial-gradient-60"/>
    <radialGradient id="radial-gradient-64" cx="1501.109" cy="-680.108" fx="1501.109" fy="-680.108" r="4254.956" xlink:href="#radial-gradient-60"/>
    <radialGradient id="radial-gradient-65" cx="1501.109" cy="-679.825" fx="1501.109" fy="-679.825" r="4254.495" xlink:href="#radial-gradient-60"/>
    <radialGradient id="radial-gradient-66" cx="1501.109" cy="-679.832" fx="1501.109" fy="-679.832" r="4254.516" xlink:href="#radial-gradient-60"/>
    <radialGradient id="radial-gradient-67" cx="1501.109" cy="-679.841" fx="1501.109" fy="-679.841" r="4254.53" xlink:href="#radial-gradient-60"/>
    <radialGradient id="radial-gradient-68" cx="1501.145" cy="-679.868" fx="1501.145" fy="-679.868" r="4254.546" xlink:href="#radial-gradient-60"/>
    <radialGradient id="radial-gradient-69" cx="1501.137" cy="-679.868" fx="1501.137" fy="-679.868" r="4254.548" xlink:href="#radial-gradient-60"/>
    <radialGradient id="radial-gradient-70" cx="1501.129" cy="-679.868" fx="1501.129" fy="-679.868" r="4254.56" xlink:href="#radial-gradient-60"/>
    <radialGradient id="radial-gradient-71" cx="1501.12" cy="-679.868" fx="1501.12" fy="-679.868" r="4254.573" xlink:href="#radial-gradient-60"/>
    <radialGradient id="radial-gradient-72" cx="1501.112" cy="-679.868" fx="1501.112" fy="-679.868" r="4254.564" xlink:href="#radial-gradient-60"/>
    <radialGradient id="radial-gradient-73" cx="1501.141" cy="-679.868" fx="1501.141" fy="-679.868" r="4254.569" xlink:href="#radial-gradient-60"/>
    <radialGradient id="radial-gradient-74" cx="1501.094" cy="-679.868" fx="1501.094" fy="-679.868" r="4254.562" xlink:href="#radial-gradient-60"/>
    <radialGradient id="radial-gradient-75" cx="1501.086" cy="-679.868" fx="1501.086" fy="-679.868" r="4254.566" xlink:href="#radial-gradient-60"/>
    <radialGradient id="radial-gradient-76" cx="1501.073" cy="-679.868" fx="1501.073" fy="-679.868" r="4254.558" xlink:href="#radial-gradient-60"/>
    <radialGradient id="radial-gradient-77" cx="1501.069" cy="-679.868" fx="1501.069" fy="-679.868" r="4254.548" xlink:href="#radial-gradient-60"/>
    <radialGradient id="radial-gradient-78" cx="1501.061" cy="-679.868" fx="1501.061" fy="-679.868" r="4254.529" xlink:href="#radial-gradient-60"/>
    <radialGradient id="radial-gradient-79" cx="1501.377" cy="-679.868" fx="1501.377" fy="-679.868" r="4252.839" xlink:href="#radial-gradient-60"/>
  </defs>
  <!-- Generator: Adobe Illustrator 28.7.7, SVG Export Plug-In . SVG Version: 1.2.0 Build 194)  -->
  <g style="isolation: isolate;">
    <g id="Layer_1">
      <g>
        <rect width="2598.076" height="1732.051" style="fill: url(#radial-gradient);"/>
        <g>
          <path d="M1926.418,871.37c0,346.488-280.891,627.379-627.38,627.379s-627.38-280.891-627.38-627.379S952.544,244,1299.038,244s627.38,280.88,627.38,627.37Z" style="fill: url(#radial-gradient-2); opacity: .5;"/>
          <path d="M1926.418,871.37c0,346.488-280.891,627.379-627.38,627.379s-627.38-280.891-627.38-627.379S952.544,244,1299.038,244s627.38,280.88,627.38,627.37Z" style="fill: url(#radial-gradient-3); mix-blend-mode: color-dodge;"/>
          <g style="mix-blend-mode: color-dodge;">
            <path d="M1025.163,313.741c-.184-.031-.457.042-.887.173-1.371.519-3.403,1.544-3.734,1.77-.31.221-3.881,3.198-3.892,3.225-.205.173-.41.377-.321.456.022.022,1.723.746,6.87-2.84,2.84-1.964,2.525-2.683,1.964-2.783Z" style="fill: url(#radial-gradient-4);"/>
            <path d="M1016.855,310.485c-.146-.094-.262.021-.399.073-.877.331-2.809,1.25-3.14,1.45-.389.23-.74.651-.614.734.173.111,1.018-.179,1.79-.594.368-.194,2.269-1.401,2.363-1.664Z" style="fill: url(#radial-gradient-5);"/>
            <path d="M1031.943,303.726q1.486-.341,2.977-.966c.142-.058,1.486-.614,3.645-1.749.02-.022,2.483-1.314,2.872-1.618q-.168-.052-.557.069c-.094.031-9.195,3.297-17.539,7.745l4.642-1.818c1.323-.536,2.531-1.344,3.96-1.665Z" style="fill: url(#radial-gradient-6);"/>
            <path d="M1022.232,309.261c-.047-.016-.115-.042-.162-.047.195-.184.299-.263,3.696-1.702,1.166-.493,2.764-1.165,3.619-1.612.146-.084.357-.2.483-.31-.22.031-.52.078-.725.142-9.963,3.224-17.724,8.376-19.048,9.542.793.162,11.438-5.031,12.032-5.488-.032-.184.057-.352.105-.525Z" style="fill: url(#radial-gradient-7);"/>
            <path d="M1032.342,308.305c.21-.131.425-.273.593-.435.342-.293.621-.652.951-.956.588-.546,1.229-1.04,1.827-1.585.353-.321.353-.399.363-.441-.047-.043-.079-.053-.33.01-2.022.663-5.525,3.251-5.746,3.551,0,.016.016.025.016.042q.33.168-.568,1.418c.284-.031,2.883-1.591,2.894-1.602Z" style="fill: url(#radial-gradient-8);"/>
            <path d="M1007.407,326.655c-.209-.032-.425.048-.63.1-.903.262-1.696.651-1.696.651-2.374,1.182-5.141,3.246-5.309,3.497,0,.011.02.037.031.064.425-.022,4.899-1.796,6.769-3.14.683-.494,1.323-1.104.834-1.172Z" style="fill: url(#radial-gradient-9);"/>
            <path d="M1011.903,336.916c-.242-.164-.483-.346-1.807-.153-.226.031-.52.084-.74.126-2.158.437-4.328.862-6.492,1.308-2.662.588-11.275,4.685-12.456,6.329.011.063.037.137.047.189.699.221,1.472-.142,2.148.32,1.051.73.741,1.192.515,1.538-.388.61-6.108,4.858-7.646,5.677-.641.346-.719.336-1.077.315-.431-1.665,1.596-2.227,1.643-3.672-1.071.164-6.386,3-7.006,4.464-.067.157-.152.399-.094.562.331,1.235,1.008,2.348,1.245,3.623.104.494.425.936.404,1.466,0,.935-.588,1.78-.446,2.742.031.152.089.367.204.478,1.617,1.701,16.101-6.791,20.051-10.761.866-.882,3.392-5.908,1.733-5.849-1.822.062-3.419.945-5.141,1.348,3.387-2.273,7.189-3.838,10.576-6.123.031-.026,4.301-3.649,4.338-3.928Z" style="fill: url(#radial-gradient-10);"/>
            <path d="M970.347,336.297c6.291-2.82,11.616-7.274,17.781-10.299q-6.234,3.929-6.538,4.265l21.122-12.037c.425-.242,1.055-.604,1.68-1.402-.23-.063-.572.053-.798.142-4.511,2.016-34.414,18.082-40.789,23.318,3.182-.405,5.179-2.989,7.873-4.301-.089.099-.226.23-.331.315Z" style="fill: url(#radial-gradient-11);"/>
            <path d="M970.405,380.846c-.089,0-.205.02-.284.042-.336.126-.719.304-1.418.85-2.742,2.127-4.79,5-7.783,6.832-4.963,3.035-6.458,3.955-6.685,4.689.042.027.084.085.12.095.388.053.746-.02,1.953-.273,1.885-.399,2.122-.388,2.473-.135.662.446.505,1.512,1.376,1.816.268.101,1.639-.042,2.999-.299,8.57-1.592,12.131-5.115,12.151-5.147.962-1.15-1.423-5.561-1.434-5.598-1.049-1.806-3.188-2.868-3.471-2.872Z" style="fill: url(#radial-gradient-12);"/>
            <path d="M982.421,344.688c-.195-.015-.605.005-1.47.226-4.601,1.235-7.888,4.081-8.057,4.496.022.026.042.053.069.064.457.01.913-.226,1.37-.038.1.321.131.373-.32,1.297-.277.557-.982,2.054-.037,1.776,1.55-.462,6.119-4.48,6.633-4.937,2.19-1.949,2.726-2.804,1.813-2.883Z" style="fill: url(#radial-gradient-13);"/>
            <path d="M1186.691,261.63c-3.067,3.765-11.08,5.934-15.386,7.1-.2.047-21.989,6.365-22.924,7.631-6.012,8.082,9.106,10.682,9.291,10.661,37.49-2.747,37.969-2.337,40.605-.053.195.169,17.624,19.542,11.958,30.071-2.29,4.28-2.279,4.443-2.164,5.031.41,2.258,3.126,2.426,3.913,4.337,1.197,2.931-.01,6.281,1.623,9.128,4.942-1.161,8.912-6.308,14.799-3.676,10.056,4.475,5.414,12.566,5.34,12.641-4.127,4.884-11.637,4.667-15.35,10.172-2.048,3.024-4.05,11.342-2.505,16.216.714,2.3,30.001,51.902,44.039,56.644-7.042-103.12-12.209-150.017-19.321-172.304,6.392,19.598,11.558,58.056,19.321,172.304,35.096,6.737,35.837,5.892,38.074,3.376,3.718-4.159,10.056-36.23,10.109-36.545.914-4.722-1.57-9.715,1.119-14.289,1.428-2.368,1.591-2.421,10.367-5.084q27.644-8.37,28.369-13.612c.734-5.404,1.155-8.381,6.134-10.917,12.063-6.113,25.937-6.981,37.979-13.176,4.931-2.552,10.309-4.181,14.872-7.405.1-.069,2.364-1.723-.446-5.363-4.106-5.298-10.36-8.366-14.321-13.822-2.521-3.487-2.432-7.893-4.18-11.653-2.027-4.396-1.119-5.582,1.349-8.077,3.414-3.465,1.051-4.873-5.981-9.012-22.95-13.553-23.144-13.874-25.108-16.92.126-.289.273-.662.399-.956.351-.137.829-.304,1.176-.446-6.701-6.564-20.318-1.365-23.58-13.827-.688-.347-1.612-.809-2.295-1.124.105-.577.304-1.36.488-1.916.289-.075.662-.169.925-.237-3.009-.41-11.696-.962-11.786-.967-5.813-.336-13.16.925-14.567,1.182-5.026.903-9.291-2.395-14.127-2.563-6.791-.236-21.731-.262-27.686.027q-10.961.614-12.227,1.465s-.025,0-.047.01q-11.925.651-17.629,1.744h-.027c-.11.026-.262-.069-.33.068.016.053.068.032.1.037.12.022.257.037.382.058q6.97.515,9.059,1.046-.583.062-8.365-.064c-3.193-.037-4.386-.052-8.172.304-27.97,3.126-48.063,12.142-48.267,12.232q.987.53,4.999.525Z" style="fill: url(#radial-gradient-14);"/>
            <path d="M1080.835,379.905c1.428-3.807.798-5.524-1.87-5.108-.078.015-8.055,2.131-9.531,5.691-.829,2.049,2.499,7.374,3.824,8.203,3.255,2.075,7.536-8.67,7.578-8.786Z" style="fill: url(#radial-gradient-15);"/>
            <path d="M1137.672,266.866c-1.769.73-3.587,1.365-5.408,2.032,5.751-1.35,24.288-6.439,27.276-7.284-12.415,4.123-22.23,7.378-32.696,9.595-2.442.52-3.177,1.102-4.123,1.827,0,.714-1.003,4.27-2.783,5.899-5.535-1.676-19.904,6.653-20.465,7.131,1.271.562,2.762.325,3.975,1.075-.058.184-.153.437-.194.626,1.849-.242,2.552-.32,8.691-2.599-10.576,5.76-11.805,4.39-12.619,3.487-8.013.194-8.481,3.239-8.685,4.705-4.554,2.999-10.476,3.319-14.515,7.294.105.179.263.399.388.573,1.277.069,2.19.111,10.546-1.529,6.164-1.223,11.626-5.592,18.406-4.101q-.499,1.192-1.916,2.269c4.511.898,18.937-6.102,17.623-9.663-.478-.142-1.128-.295-1.621-.404,1.071-1.512,10.613-7.562,12.771-8.072,12.881-3.105,17.403-7.941,17.519-9.033-.194-.063-.457-.153-.661-.226,11.936-3.115,17.382-4.543,21.089-6.995q-.961-.069-3.035.299c.126-.042,27.024-8.413,28.406-8.823-6.959.998-7.383,1.05-10.01,1.234,6.675-1.78,13.533-2.784,20.235-4.495-6.481.015-17.268,1.35-17.346,1.371-.262.031-26.19,4.459-31.782,6.611.225.326.672.683,1.045.847-1.082.325-2.007.619-4.732.277-1.896-.235-24.183,5.184-26.473,7.946,1.144.541,1.434.666,11.096-1.875Z" style="fill: url(#radial-gradient-16);"/>
            <path d="M1033.403,311.761c-.514.731-.84,1.57-1.403,2.237-.809.929-.914,1.009-3.686,3.162.277-.683.64-1.587.924-2.275.111-.346.331-.676.331-1.072-.226-.115-2.49.126-4.827,2.543.253,0,.526-.022.778-.038,0,.075,0,.184-.016.248-2.689,2.268-6.276,2.636-9.242,4.317.456.241.924-.289,1.401.01q-.383.772-.341.925.514.162,9.132-2.674c-2.715,1.508-9.952,5.505-10.513,7.296.037.047.068.093.078.12.037.016,9.763-3.592,10.992-4.265q.835-.468,6.323-5.257c.037.079.173.315-.022.845-.011.048-.047.1-.078.143q2.521-2.394,9.153-7.888c1.423-1.172,1.528-1.261,1.743-1.638q-.437-.105-.982.011c-.069.015-8.639,2.552-9.505,3.061-.089.047-.195.116-.242.189Z" style="fill: url(#radial-gradient-17);"/>
            <path d="M1127.427,380.535c4.002-.336,12.825,10.777,12.919,10.897,2.101,2.736,4.29,5.572,6.276,5.199,5.524-1.045,13.774-22.135,13.853-22.351.205-.647.4-1.549.347-2.232l-40.379-9.154c1.13-.887,2.21-1.712,11.91-6.024,4.259-1.884,6.381-2.83,6.244-3.939-.331-2.888-14.515-16.326-21.401-17.44-3.057-.489-6.296.441-9.253-1.014-3.14-1.539-2.752-6.638-7.053-6.974-3.949-.315-12.452,2.888-18.659,5.225-6.302,2.368-6.36,2.359-7.353,2.3-.408-1.014-.865-2.064-1.233-11.238-2.552-1.009-10.535.346-12.909.782-12.152,2.862-48.377,33.222-41.566,37.863,6.748,4.616,29.996-.136,33.122-1.648-.468-1.944-.767-3.23,9.368-4.337,8.598-.935,9.873-3.02,10.729-4.407,2.09,1.104,7.626,5.898,7.657,5.935,2.957,3.161,4.202,7.447,6.964,10.755,3.482,4.165,11.495,3.713,11.575,11.353,0,.164-1.739,17.304-25.623,24.463-7.147,2.137-14.904,1.727-21.684,5.34-3.004,1.587-3.094,6.644-2.237,7.4,1.308,1.176,5.536,1.696,18.091-2.552q9.595-3.25,26.658,4.248-1.382,1.455-8.261,4.033c3.765,3.325,32.938,9.396,38.894,6.097q-.237-.903-1.754-1.638-.772-.374-13.743-12.462c10.12,1.093,13.318,2.39,19.074,6.287,1.119.767,1.922,1.318,2.474,1.15,3.25-1.004,8.675-13.25,6.055-15.965-5.656-5.887-16.201-5.116-19.431-14.31-2.662-7.558,10.194-11.638,10.33-11.644Z" style="fill: url(#radial-gradient-18);"/>
            <path d="M995.486,323.026c.346.268,2.626-.82,4.454-1.964.367-.231,1.008-.641,1.119-.803-.011-.011-.037-.027-.042-.027-.094.011-.184.031-.278.073-.84.315-5.205,2.348-5.252,2.721Z" style="fill: url(#radial-gradient-19);"/>
            <path d="M1218.863,345.755l6.164-1.229s1.607-.709,2.012-1.87c.247-.741-.02-1.224-.284-1.639-.55-.924-1.659-1.218-2.321-2.031-.409-.51-.435-.993-.435-1.271,0-.084-.031-.195-.1-.252,0,0-.788-.526-2.967-.268-2.762.593-10.65,5.177-6.344,7.814.935.577,2.568,1.071,4.275.746Z" style="fill: url(#radial-gradient-20);"/>
            <path d="M1097.955,324.454c.047-.021.09-.073.131-.105-.641-.982-9.227-3.529-15.571-2.557-5.562.93-3.824,4.674-2.521,5.745,4.223,3.45,17.825-3.009,17.961-3.083Z" style="fill: url(#radial-gradient-21);"/>
            <path d="M1054.629,295.555c-1.753.661-4.653,1.875-5.266,2.332.284-.027.546-.121.798-.2,2.736-.882,5.441-.667,5.441-.656-.247.971-1.586.94-1.812,1.933.352.467,5-1.413,5.33-1.586,1.676-.893,7.085-5.592,7.085-6.538-.72-.237-1.297.382-1.98.373.61-1.193,2.117-1.124,2.884-2.096q-.126-.037-.488.068c-4.863,1.587-11.302,4.538-12.1,5.074,1.082.31,2.042-.479,3.104-.389.146.404-.42.719-2.994,1.686Z" style="fill: url(#radial-gradient-22);"/>
            <path d="M1031.238,321.309c-1.171.825-1.565,1.108.237,2.22,1.544.962,5.43.091,8.764-2.751,1.907-1.639,5.825-5.651,4.029-5.819-.216-.011-.526.053-.741.104-3.104.856-11.768,5.888-12.289,6.245Z" style="fill: url(#radial-gradient-23);"/>
            <path d="M1084.228,292.303c-.022-.036-.069-.084-.079-.109-.142.011-.31.048-.426.079-.126.042-.273.073-.389.115-2.499.746-4.915,1.729-7.394,2.479-2.872.872-5.834,1.445-8.707,2.337-2.042.636-3.303,1.077-3.734,1.345.778.184,9.143-1.197,13.639-2.458,2.237-.636,3.299-1.045,6.339-3.177.263-.183.53-.367.751-.61Z" style="fill: url(#radial-gradient-24);"/>
            <path d="M1063.442,296.684c.037.02.057.063.084.084.924-.111,9.516-3.703,11.983-4.864,1.093-.509,1.308-.714,1.335-1.176,0-.545-.814-.294-.846-.809,0-.241.157-.498,0-.751,0-.031-.011-.067-.048-.1,0,0-.105-.157-.362-.236-.426-.136-.619-.074-1.157.09-.31.131-.776.346-1.312.734-1.885,1.324-3.125,3.466-5.388,4.307-2.804,1.024-3.749,1.381-4.29,2.721Z" style="fill: url(#radial-gradient-25);"/>
            <path d="M1083.382,283.771c6.07-3.026,6.107-3.094,6.196-3.262-.225-.026-.436.063-.629.111-.058.022-6.124,1.964-7.893,2.82-2.033,1.008-1.334,1.696-1.334,1.696.42.215,1.834-.461,3.661-1.365Z" style="fill: url(#radial-gradient-26);"/>
            <path d="M1096.484,280.956c2.61-.783,3.414-.993,4.28-.641,0,.089-.031.204-.069.299-.756.468-1.612.751-4.191,1.576-7.017,2.232-8.807,3.035-9.253,3.319-1.575.981-1.722,2.846-1.05,3.151q.195.078,4.678-1.214c1.781-.52,3.698-.089,5.478-.741,4.338-1.559,8.046-4.39,12.231-6.259,2.622-1.155,5.494-1.497,8.035-2.783.184-.09.416-.247.552-.389q-.137-.136-2.033-.557c-.031-.058-.042-.131-.079-.184.42-.268.877-.461,1.323-.672,3.587-1.68,3.609-1.822,3.676-2.19-.388-.094-.824.022-1.16-.273.552-.772,1.911-1.013,1.628-2.321.776-.904,1.995-1.224,2.704-2.195-.23,0-.556-.031-.766.006-4.348,1.082-20.141,7.01-21.685,8.008.847.142,1.597-.237,2.412-.363-1.177.988-4.417,1.729-5.814,2.033-4.8,1.087-7.221,3.818-7.242,3.844.499.29,5.751-1.276,6.344-1.454Z" style="fill: url(#radial-gradient-27);"/>
            <path d="M1046.437,321.518c.399-.005,44.365-4.521,56.013-16.074,3.167-3.13-4.631-3.587-4.711-3.587-4.049-.11-23.795,6.701-27.896,8.361-3.65,1.476-6.512-1.923-5.74-2.805.346-.393.935-.588,2.284-.977,7.121-2.006,3.598-4.264,2.831-4.301-1.859-.1-3.445,1.003-5.226,1.218-2.09.251-4.101-.526-6.176-.304-.614.067-2.704.341-4.017.682-1.093.446-4.543,4.049-4.511,4.926.893-.026.961-.026,2.709-.619,1.959-.683,4.68-1.618,5.247-1.25,1.098.715-2.41,5.188-2.589,5.378-2.148,2-5.162,2.752-7.137,5-3.855,4.405-2.301,4.379-1.082,4.352Z" style="fill: url(#radial-gradient-28);"/>
            <path d="M1926.407,864.678c-.982-17.499-1.827-40.878-3.618-58.314-.778-5.246-1.486-10.046-2.159-14.546-4.191-13.849-4.554-16.076-12.772-65.078.095.183.231.446.33.625q-20.097-66.69-20.428-69.915c.105.111.183.195.273.295-7.074-20.871-10.351-27.991-19.951-48.777l-21.489-42.065c-5.924-7.831-12.794-14.752-22.918-21.227,9.453,6.002,17.041,12.898,22.918,21.227-8.277-13.523-18.88-31.814-27.692-44.98-37.738-51.512-38.458-52.499-61.853-77.675l-24.987-25.287-.064-.078c-.951-.867-1.875-1.718-2.846-2.543,1.077,1.455,1.486,2.007,11.874,12.777-1.885-1.077-3.483-2.535-5.241-3.785,2.919,5.32,8.182,8.307,12.288,12.451-.283.195-.672.452-.945.646-17.44-14.221-32.276-31.316-49.884-45.327,8.801,5.472,15.738,13.586,25.312,17.992-2.247-4.097-29.01-27.241-46.634-37.88-12.656-7.647-14.027-8.928-15.36-10.157.73.226,1.67.588,2.353.914-1.382-1.119-2.158-1.743-5.687-3.855-.268.215-.63.51-.914.725-1.124-.432-3.282-1.25-11.721-6.979.756.288,1.749.645,2.51.861-1.434-3.371-16.89-10.45-18.04-10.787q.715,1.77,3.288,4.779c-5.378-1.869-8.082-7.535-13.423-9.448,1.003,2.442,3.666,3.592,4.69,6.003q-1.938,4.249-1.618,6.838c.509,3.876,12.951,25.785,13.066,25.974,9.28,14.258,8.912,19.231,8.844,19.762q-1.802,13.25-9.096,18.459c-2.668,1.922-2.616,2.852-1.177,6.345.195.472,19.662,46.039,37.643,37.721,5.776-2.684,2.899-12.231,1.502-16.831,1.486,1.072,33.668,33.074,39.676,43.173,2.851,4.8,5.556,9.327,10.498,9.353,1.003-1.796,1.496-14.441-1.618-20.245-7.174-13.297-5.514-14.804-1.907-18.139.127-3.198-.251-4.396-9.584-10.571q-6.464-4.275-15.24-18.439c-3.345-5.398,2.19-12.198-2.751-17.335q-12.909-13.423-13.296-14.19c-.226-.494-.499-1.166-.731-1.665.195-.304.457-.704.651-.998,4.795,1.592,20.828,12.194,22.004,15.508-.399.042-.924.084-1.312.132q12.441,27.77,24.209,38.72c10.267,9.569,25.886,8.114,36.22,17.583-1.79-.253-3.282-1.235-4.925-1.86-.299.183-.698.431-1.004.619.625,1.235,1.472,2.328,2.211,3.493-5.992-1.728-11.721-4.333-17.966-5.142,6.812,9.374,16.548,16.375,21.857,26.968-6.7-.258-7.168-10.021-14.404-9.454-.206.336-.488.793-.719,1.129.078.121,8.176,14.989,9.011,16.038,1.102,1.382,6.58,8.423,6.196,11.554q-4.112-.373-4.91-.168c-.572,1.271-.767,2.673-1.303,3.954.204.278.494.646.698.929l-.136-.02q-18.958-1.329-19.084.499c-.776.483-1.827,1.119-2.625,1.607-3.918-2.269-8.912-3.676-14.132-4.747l9.143,1.602c-1.538-1.161-5.656-4.248-13.045-3.886-2.51.126-3.088.157-10.145-7.93-5.184-5.935-11.286-14.573-10.971-21.983.121-3.061-4.501-15.986-7.94-16.359-.42-.011-10.252-.068-8.56,4.732.719,2.058,13.333,24.088,22.287,34.428,3.634,4.181,3.803,4.743,3.897,5.015-.456.499-.551.604-3.245,1.12-1.89.325-4.437.745-6.339,1.05-.566.778-1.303,1.818-1.864,2.594q-10.041-.288-12.783,2.4c.515,2.751,1.47,7.851,4.836,17.194-.488.867-1.129,1.995-1.617,2.851q-8.382-.194-13.113,1.565.042.457,3.64,9.301c-1.943,1.333-4.805,2.741-7.069,3.466-.052,2.068-.598,4.852-1.47,6.738-9.668-.483-11.217-1.638-15.428-4.716,1.039,1.859,2.594,4.228,3.844,5.935-.295.945-.708,2.221-1.003,3.166-1.938.825-4.6,1.796-6.644,2.3q-4.684-3.009-12.24-3.204c-.4.883-.951,2.064-1.34,2.947,1.885,1.66,4.407,3.886,6.313,5.567-.778.556-1.828,1.297-2.605,1.853,45.289,12.577,38.179,58.077,37.926,58.487-21.1-1.507-41.429-7.819-62.415-9.952,1.035,1.812,2.658,4.091,4.06,5.625-.032.551,2.315,56.775,9.542,58.901q-1.954,17.346-2.317,18.938c14.657-1.14,17.714-1.377,24.006.047q2.416,9.914,2.552,10.119l34.355-11.396c9.484-1.192,11.868-13.202,6.744-21.29,5.467-22.588,5.74-22.697,19.882-28.264q.204-18.228,1.733-19.483c6.549-5.452,11.654,3.261,17.782,3.287,5.583-9.904,10.215-16.332,18.948-8.806.435.368,48.366,55.42,53.093,70.849,3.56,11.648,1.917,11.885-18.318,14.663,3.959,6.722,16.217,17.346,16.306,17.392,1.733-5.487-1.686-10.77-.661-16.231.913.11,2.11.277,3.004.399,2.541-3.776,3.56-8.281,5.913-12.142q-3.015-10.498-2.925-14.295c.913-.231,2.131-.557,3.056-.797,1.223,1.68,2.857,3.911,4.112,5.565q-1.009-4.936-17.236-24.43c.231-.929.526-2.179.741-3.119-7.62-3.398-13.654-6.076-33.972-47.616.965-1.539,2.957-3.22,4.653-3.871l46.077,54.139q.173.268,13.88,39.718l14.6,33.452c.262-1.938.43-4.538.43-6.486-.022-7.946-3.057-15.304-4.6-22.961q-4.989-24.834-2.548-26.688c4.443.955,13.77,6.507,15.718,13.733.95-1.696,2.022-4.064,2.656-5.892.998-.069,2.306-.147,3.278-.2,3.025-22.624-13.124-42.182-10.315-64.763,1.645-.583,4.244-.43,5.829.3-.388.829-.913,1.959-1.303,2.794,2.858,3.329,4.008,4.191,7.338,6.186q.96,3.981-.101,10.157c2.957,3.34,4.327,7.657,6.884,11.233,10.908-6.302-5.366-17.441-2.137-26.641,4.853-1.035,5.688.567,7.09,4.31-.483.878-1.119,2.044-1.603,2.926q1.707,2.714,4.202,12.451c-.535.783-1.255,1.833-1.801,2.615,7.872,19.368,25.643,34.456,24.924,57.553-.794.446-1.907,1.066-2.726,1.512-9.407-6.303-8.913-27.145-24.174-23.149-.126,1.807-1.076,4.254-2.306,5.567-1.816-.609-4.269-1.307-6.117-1.727.388,1.727,1.634,3.912,2.925,5.135-3.508,2.984-8.23,1.171-12.01,3.062-.31,2.069-.488,4.884-.399,6.973.866.257,2.032.6,2.899.851,1.517,11.569,4.348,33.096,18.612,45.106.667-.672,1.544-1.57,2.205-2.237-.031-.94-.078-2.18-.11-3.115,4.642,3.886,6.17,10.392,11.558,13.654.662-1.801,1.244-4.333,1.423-6.249,1.292,1.329,3.419,2.794,5.152,3.482,2.359,43.814,2.726,50.546-2.069,62.373-6.296-.52-7.326-1.88-9.348-8.051-1.723.048-4.144,1.008-5.352,2.259-20.942-1.54-19.025-31.978-40.893-32.335-4.07,7.268-.856,15.686-3.66,23.144-.903.367-2.08.846-2.984,1.213-4.527-3.324-52.563-47.017-56.002-52.721-1.06-1.78.368-4.999,1.476-6.748q2.615-4.164.614-30.034c-5.214-3.435-6.281-4.008-9.426-5.704q-4.222,3.219-21.811-.819c-1.46,1.413-3.25,3.508-4.307,5.268-22.813-8.891-41.267,16.106-63.943,8.255-2.499-.216-2.935-.236-3.376-.242-6.428,1.303-8.607,1.744-15.582-6.607-1.255-.876-1.303-.876-1.334-.876-.856.761-2.111,1.68-2.831,2.574-4.269,5.22-1.04,12.614-5.204,17.865-5.205,6.533-14.951,6.412-19.746,13.512-1.439,2.101-.761,5.866-.887,8.403q-1.439,27.56-8.86,31.147c-6.664,3.224-18.139,12.105-19.536,14.378-4.138,6.644-34.55,59.416-34.55,59.459-1.255,14.096,8.088,25.975,8.319,39.754.204,11.575-16.306,17.062-11.081,30.459,7.809,20.071,18.659,38.694,27.928,58.072,3.891,8.135,33.131,36.069,38.678,35.548,27.519-2.594,54.086-12.955,82.266-9.925.914.095,1.985.866,2.683,1.449,5.078,4.254,1.45,11.932,6.412,16.238,4.862,4.233,11.207,2.142,16.674,3.854q3.618,10.95-.878,21.5c47.375,8.765,77.257,16.727,98.851,27.24-21.264-10.34-51.975-18.574-98.851-27.24q-12.493,29.356-10.571,37.733c3.015,13.224,7.148,31.347-9.778,71.117-7.793,18.307-22.698,31.757-32.976,48.362-9.562,15.445-10.655,34.193-19.504,49.927-34.398,61.234-35.391,62.258-40.915,67.94-3.745,3.844-5.809,5.977-9.689,14.831,17.619,5.461,38.352-8.66,45.163-13.297l27.298-19.231,34.529-27.535c7.794-8.134,12.436-18.742,20.771-26.447,9.542-8.828,22.272-13.082,31.693-22.082,22.492-21.526,43.393-64.259,45.562-69.583,8.708-21.268,38.494-53.829,47.328-63.198,13.879-15.408,32.512-55.829,37.149-71.663q-3.54-1.155-9.737.158-1.392-1.938,1.508-27.245c1.081-9.369-1.04-18.606-1.209-27.928-.483-24.215,4.233-48.278,2.075-72.534l-6.422-76.379q1.527,2.379,3.135,13.419c1.632-1.34,2.977-4.071,3.46-6.124,15.655,57.641-.94,115.434.914,173.134q6.318-2.962,9.138-2.337,16.71-36.052,17.519-40.7c-.157,1.024-.363,2.389-.525,3.419.368-1.896.835-4.432,1.135-6.345l.325-2.115,1.832-13.323h0c.752-6.097,1.697-13.723,3.115-34.445-.037,1.092-.048,2.127-.095,3.113.809-17.945,1.995-40.379,1.886-57.578ZM1922.489,931.484q-1.217-2.611-.33-24.299-.604,6.875-.992,9.904c-1.639-46.974-.945-51.271.02-57.221,2.731,4.139,3.86,38.878,3.441,58.875-.892,8.194-1.235,9.485-2.138,12.741Z" style="fill: url(#radial-gradient-29);"/>
            <path d="M1908.888,726.2c.194.778.457,1.817.625,2.605l3.141,14c-.058-.22-.116-.477-.184-.682,1.108,8.313,2.752,16.537,4.385,24.761-4.794-30.758-6.564-37.076-13.664-62.694-1.287-3.969-2.485-7.688-3.613-11.19,7.356,25.139,7.599,26.174,10.703,39.417-.446-2.078-.925-4.142-1.392-6.217Z" style="fill: url(#radial-gradient-30);"/>
            <path d="M1897.664,686.509c.3.803.599,1.601.935,2.379-.935-3.015-2.163-5.94-2.815-9.044.352.977.7,1.974,1.015,2.977l-7.453-22.067.09.289c-.909-2.421-1.124-2.931-1.403-3.298,2.936,8.707,6.517,19.73,11.543,35.254-.583-2.012-1.213-4.139-1.913-6.491Z" style="fill: url(#radial-gradient-31);"/>
            <path d="M1921.213,793.813c-.929-9.059-2.636-18.002-4.359-26.93,1.06,6.906,2.29,15.078,3.776,24.935.194.651.389,1.292.583,1.995Z" style="fill: url(#radial-gradient-32);"/>
            <path d="M1563.607,499.065c-.047.168-.137.377-.231.535-2.359,4.6-4.06,13.381-4.07,13.464-.594,3.529-.39,5.21.787,6.655,2.017,2.421,11.359,1.401,18.155-2.962,1.727-1.104,3.298-2.385,5.126-3.308,2.137-1.067,4.989-.284,6.642-2.595.93-1.303.547-4.333-1.119-8.98-.856-2.368-1.869-3.829-2.946-5.378-1.769-2.615-1.88-3.561-.693-6.287.498-1.161,1.334-3.114.693-5.546-.641-2.4-2.484-4.07-3.939-5.036-.714-.494-1.743-1.055-2.541-1.434-2.158-1.024-4.521-1.538-6.685-2.525-1.576-.725-2.137-1.303-2.39-1.592-.195-.195-.226-.226-.43-.215-.594.147-14.715,3.666-5.835,8.618.562.315.882.498,2.132.598-.325.325-.898.577-1.286.772-5.855,2.861-7.236,4.275-8.581,5.645-.951.966-1.985,2.641-1.576,5.204.363.924.856,2.206,3.15,3.345,1.781.888,3.787.536,5.636,1.02Z" style="fill: url(#radial-gradient-33);"/>
            <path d="M977.027,333.213c.011-.02.042-.037.053-.047-.011.005-.011.011-.031.011-1.371.719-12.615,7.237-13.182,7.983.567-.005,1.166-.005,13.16-7.946Z" style="fill: url(#radial-gradient-34);"/>
            <path d="M1861.455,764.987c.1-.031.206-.094.295-.135-.032-.075,0-.179-.042-.232-.047-.058-5.388-6.943-5.388-6.953-.962-1.06-1.964-1.371-2.332-1.481-1.744-.42-3.571-.373-5.273-1.009q-3.036-1.155-3.299-1.138c-1.381.078-1.779,1.233-.945,2.678,1.791,3.082,13.776,9.347,16.984,8.27Z" style="fill: url(#radial-gradient-35);"/>
            <path d="M1747.738,680.738c1.102,1.202,3.456.614,3.902,2.751.41,1.933-.357,3.907.179,5.829.446,1.576,1.554,1.86,2.032,1.974,1.293.321,7.831-1.779,7.977-7.032.016-.588-.078-1.375-.146-1.958-.32-2.186-1.14-4.259-1.47-6.449-.321-2.348-.174-4.722-.515-7.053-.536-3.698-1.86-4.133-3.172-4.27-2.101.058-7.216,1.996-9.028,5.363-1.077,1.984-1.344,9.138.242,10.845Z" style="fill: url(#radial-gradient-36);"/>
            <path d="M1715.162,679.702c.037-.022,2.662-2.984,2.668-3.126.242-1.06-1.618-1.953-4.868-2.321-3.529-.341-9.179.41-6.979,2.956,1.223,1.408,5.845,3.367,7.752,3.272.65-.036.971-.336,1.428-.782Z" style="fill: url(#radial-gradient-37);"/>
            <path d="M1747.701,650.084c-.536.488-1.061.955-.877,2.095.063.41.499,1.255.934,1.785.042.058,5.11,6.024,5.457,6.171,1.161-.551.099-9.562-.903-14.231-.011-.075-1.623-7.163-2.626-7.815-.037.01-.095.016-.137.021-.056.073-.22.263-.304.72-.036.131-.084.315-.1.446-.394,2.263.384,4.458.384,6.706,0,2.494-1.056,3.419-1.827,4.102Z" style="fill: url(#radial-gradient-38);"/>
            <path d="M1882.462,781.063s2.982.562,3.255.283c.457-.467,1.072-7.21,1.072-7.278.016-.126.016-.289.016-.415,0-.731-.163-.778-.347-.835-.866-.005-1.607.577-2.489.572-.558-.011-1.239-.226-1.833-.599-.778-.488-1.292-1.323-2.158-1.701-.698-.293-.993.089-1.13.273-.824,1.056.053,6.27,2.086,8.624.63.74,1.234.993,1.528,1.076Z" style="fill: url(#radial-gradient-39);"/>
            <path d="M913.683,380.446c.056.068.157.163.22.231.236-.026.551-.152.75-.293,3.593-2.468,6.695-5.546,10.267-8.046,6.465-4.5,13.423-8.245,19.804-12.892q1.475-1.087,3.355-4.61c-.047-.115-.115-.273-.162-.388-2.247.472-3.896,2.042-5.84,3.077q1.628-1.418,1.885-2.558c-.084-.037-.184-.1-.257-.142-.225.063-.535.147-.761.236q-7.957,3.34-43.037,32.171c-3.056,2.521-5.478,4.511-7.993,9.768.095.042.231.1.31.137,8.403-3.954,14.29-11.154,21.459-16.69Z" style="fill: url(#radial-gradient-40);"/>
            <path d="M962.874,347.157c.867.089,3.671-1.476,6.391-2.999,10.839-6.092,16.391-8.471,16.412-8.486,3.492-1.34,7.142-2.29,10.487-4.033,2.658-1.377,12.693-8.378,12.782-8.445,1.943-1.35,2.074-1.581,2.29-1.953-1.403-.1-3.02.798-3.041.813-3.073,1.739-5.73,4.144-8.791,5.909,3.791-3.756,8.229-6.78,11.916-10.651-.126.022-.284.032-.41.047-.126.069-12.666,6.507-13.056,8.25-.283,1.277-1.98,4.501-11.564,6.733-.057-.063-.136-.147-.204-.21.221-.295.488-.568.74-.819.085-.075.183-.173.242-.253,1.313-1.428,5.751-2.279,3.918-4.316-.253.047-25.912,12.462-26.127,16.011q.121.074,12.415-6.737c-1.245,2.048-3.539,2.741-5.284,4.127.311,0,.39,0,3.399-1.628.813-.441,2.332-1.26,5.435-2.363-2.82,1.922-11.947,6.717-17.104,9.006-1.828.814-1.854,1.881-.846,1.995Z" style="fill: url(#radial-gradient-41);"/>
            <path d="M891.458,410.753c1.864.458,3.287-1.182,5.057-1.092.094.099.184.221.273.315-.809,2.211-2.91,3.493-4.007,5.499,2.127.031,19.373-7.641,29.151-15.513,3.14-2.526,4.443-3.581,6.197-4.243.105.068.253.162.367.23q-.814,1.539-.914,1.87c.83.809,7.374,2.226,7.421,2.221q6.149-2.075,12.152-8.786c.204-.241.252-.293.283-.352q-.64-.12-6.344,2.951c.625-2.022,6.633-6.569,10.749-6.37,1.476.074,1.769-.02,2.306-.414.036-.021,3.15-2.861,2.636-5.425-3.23-1.832-4.574-5.414-2.852-7.52,1.508-1.86,14.789-18.16,14.484-19.484-.619-.33-1.292-.425-1.944-.64-.078-.2-.183-.452-.251-.641-.042.031-.11.084-.157.11-6.139,5.199-10.341,12.456-17.53,16.559-.688-2.962,2.363-3.907,3.24-6.029-.157-.11-.389-.268-.546-.389-2.82,1.056-5.173,3.193-8.188,3.844.835-1.328,2.284-2.158,2.994-3.623-.089-.095-.216-.221-.295-.305-4.006,1.203-7,4.332-10.855,5.798,2.373-3.293,6.307-4.763,9.011-7.684-2.415.248-33.961,20.634-33.211,24.436.389.157.877.41,1.224.651-.603,1.023-.63,1.061-4.374,3.324-6.27,3.797-6.549,4.543-6.523,5.447.315.157.803.22,1.151.146,3.492-.687,6.344-3.03,9.825-3.797,2.463-.547,4.931.536,7.41,0-4.406,3.397-10.298,5.168-12.797,5.929-16.49,4.963-18.087,12.257-15.146,12.976Z" style="fill: url(#radial-gradient-42);"/>
            <path d="M1035.745,440.661c.524-1.397-.883-1.334-1.986-1.166-.058.015-4.805.898-6.018,2.368-1.711,2.117-1.286,5.094-.546,5.704,1.78,1.507,7.819-4.968,8.55-6.906Z" style="fill: url(#radial-gradient-43);"/>
            <path d="M1027.699,429.102c.206-.074.846-.426,1.109-.92.541-1.097-.289-2.904-.903-3.465-1.04-.983-2.421-1.544-3.403-2.595-1.712-1.811-2.615-4.274-4.61-5.866-.295-.231-.731-.514-1.061-.708-1.985-1.228-4.449-1.013-6.438-2.226-1.266-.778-1.286-2.547-2.569-3.308-.147-.089-.399-.069-.572-.022-1.813.862-7.952,9.495-8.203,9.852-.798,1.118-1.791,2.652-2.521,3.812l-6.711,10.866q3.985.321,4.301,2.332.388,2.552.767,2.494c.536-.094,1.612-.966,3.791-2.804,3.135-2.647,8.398-7.079,14.558-7.762,4.154-.468,8.266,1.796,12.466.32Z" style="fill: url(#radial-gradient-44);"/>
            <path d="M1016.661,436.533c-.089.011-8.912,1.922-11.79,4.165-1.712,1.333-1.974,5.062-1.014,5.76,1.843,1.35,12.956-5.241,14.973-8.323.641-.998.788-2.079-2.169-1.602Z" style="fill: url(#radial-gradient-45);"/>
            <path d="M993.937,933.616c-3.356,1.37-1.439,6.648.63,7.394,1.401.509,10.146,2.148,9.973-1.497-.126-2.169-6.198-6.858-10.603-5.897Z" style="fill: url(#radial-gradient-46);"/>
            <path d="M1604.238,496.732c-.614.073-.515.414-.346,1.05l4.238.331c-2.285-1.051-3.194-1.377-3.892-1.382Z" style="fill: url(#radial-gradient-47);"/>
            <path d="M1194.279,541.491c4.028-5.262,5.809-8.771,5.278-10.425-.221-.068-.514-.179-.746-.141-2.2.735-8.066,5.739-12.609,11.322-5.498,6.759-9.242,14.716-14.63,21.542-2.889,3.634-6.875,6.208-9.579,10.004-1.034,1.465-.206,1.88.241,2.106q.708.368,17.025,1.69c9.327.751,16.186,1.576,23.454,3.561.834.221,1.932.609,2.778.672,2.647.157,5.388-2.484,7.977.221,1.276,1.355,1.402,3.823,1.497,5.456.09,1.77.935,1.933,1.423,1.875,2.615-.304,5.845-5.336,6.176-9.6.51-6.863-4.7-17.508-9.931-23.137q-2.715-2.926-12.305-.84c-2.921.634-3.56.026-4.223-2.412-1.276-4.61-2.405-5.414-4.174-6.327-.941-.494-.941-.805-.484-1.723.663-1.261,1.944-2.705,2.831-3.844Z" style="fill: url(#radial-gradient-48);"/>
            <path d="M1575.523,456.494c.525,3.335-2.033,6.445-.708,9.826,1.018.389,3.172.142,7.709-3.277,1.659-1.265,3.088-2.352,4.212-1.727,4.652,2.569-.746,7.589.851,11.233,3.23,7.389,7.026,8.392,11.836,9.663,7.531,1.974,8.493,2.226,9.884,3.187.232,1.193-.457,2.431.204,3.598,2.022,3.603,5.594,6.055,7.385,9.842.955,3.891-3.798,1.627-7.285-.022q-1.481-.698-5.718-1.034c1.707,4.92,7.242,7.305,8.345,12.614.598,2.857-2.074,4.375-5.903,6.218-1.008.483-2.563,1.228-1.995,2.379.299.603,1.989,2.552,11.144,2.299,3.876-.104,11.958-.336,12.178,2.3.189,2.416-1.649,2.39-4.432,2.332-2.703-.041-3.523.715-4.563,1.665-1.964,1.79-2.269,4.574-3.992,6.507-2.127,2.405-5.036,3.876-7.221,6.202.027.225.074.531.1.756q1.219.289,18.69-1.906c8.844-1.108,17.782-.42,26.615-1.691.078-.016.226-.016.321-.058l15.176-5.13c.105-.132.116-.363.164-.515-3.151-3.13-7.169-.357-10.604-1.581-1.632-4.574,2.611-8.759.878-13.318-3.104-8.16-6.323-8.003-8.912-7.866-5.882.31-9.894-7.924-9.894-8.008.041-.116.111-.262.179-.373q.368-.115,4.968.909c2.086.729,4.942,1.727,4.738.667-.011-.053-.048-.116-.058-.168-.289-.41-.809-1.177-2.421-2.443-7.147-5.54-16.101-8.281-22.618-14.725-3.13-3.093-5.378-7.022-9.191-9.447-6.596-4.207-12.646-5.078-15.681-5.209-.022-.016-.042-.016-.068-.016,3.854-3.439,8.939-20.454-1.449-20.864-1.88-.075-4.019.204-5.42.388-6.554.862-7.751,1.009-7.793-.698-.094-3.43,5.76-9.868.966-10.163-.137,0-12.919.242-14.805,4.8-.168.426.048,1.067.131,1.517.615,4.049,3.42,7.311,4.06,11.338Z" style="fill: url(#radial-gradient-49);"/>
            <path d="M729.143,623.794c1.648-3.85,2.557-7.946,4.079-11.837.909-2.326,1.985-4.589,2.842-6.932.1-.268.2-.625.295-.892.042-.089.692-2.195-.358-1.953-.157.037-.372.168-.509.257-3.461,2.815-7.383,20.796-6.701,21.899.147-.131.284-.368.353-.541Z" style="fill: url(#radial-gradient-50);"/>
            <path d="M1491.755,371.141c0-.221.053-.514-.011-.725-.725-1.286-2.809-3.697-5.277-4.684-.42-.158-.971-.362-1.392-.483-3.697-1.008-7.657-.116-11.302-1.586-2.589-1.046-4.494-3.608-7.61-3.445-3.56.865-6.916,2.342-10.477,3.177-3.45.814-7.085.604-10.493,1.76-2.173.73-.599,3.418-2.306,4.405-1.833,1.067-3.728-.935-5.556.131-.268.169-.651.405-.918.579-.688,3.05,2.053,6.575-1.281,9.263-1.029-.41-8.823-6.822-10.115-9.269-2.92-5.541-15.303-8.98-18.758-6.223.977,2.809,4.39,2.205,5.918,4.254-.967,4.07-5.798,3.418-7.751,6.302,1.134.803,5.026.251,7.216-.153,3.849-.693,15.98,3.509,9.21,9.096,2.899,3.561,6.759.536,10.025,1.466,3.43.955,3.441,2.216,3.467,5.23.798.678,1.481.971,8.298.252,4.458-.467,5.992-.589,7.416-.488,3.255.22,6.291,1.665,9.542,1.865.399.02.929.047,1.349.037,1.15-.022,2.752-.042,11.78-2.248,8.171-1.995,20.632-11.029,20.002-13.67-.388-1.723-1.869-2.868-2.374-4.532q.39-.368,1.397-.31Z" style="fill: url(#radial-gradient-51);"/>
            <path d="M1004.986,919.001c3.57,4.669,25.953,6.329,26.342,3.729.206-1.413-28.464-34.466-28.774-34.672-2.935-2.027-11.857-8.203-28.384-4.873-9.232,3.041-15.692,9.3-15.739,9.521,1.188,1.129,8.251.085,14.049-3.234,8.291-4.747,13.827-2.085,14.357-.621-.446.836-1.57,2.002-4.232.499-.1.064-.216.153-.295.226.337,3.991,6.985,5.667,11.386,6.785,8.097,2.048,8.644,3.771,10.32,8.886.824,2.562,1.37,4.117,3.071,6.265,1.188,1.486,2.053,2.573,2.111,3.429.195,2.747-2.899,2.615-4.212,4.06Z" style="fill: url(#radial-gradient-52);"/>
            <path d="M1040.64,946.45c2.305,1.308.477,5.578,3.765,5.914,5.708.577,5.067-7.152,9.973-7.63.541-.063,1.034-.022,2.756.268,8.761,1.507,23.875,1.948,23.932,1.932.73-.115,1.218-.257,1.266-.945.147-2.541-1.975-4.667-1.303-7.303,2.069-8.172-39.612-11.769-42.238-11.338-.672.194-.767.251-1.051.514q-.011.63.604,1.202c6.128,5.656,4.143,12.284,3.839,12.568-.787.687-4.112.152-8.686-.594-8.423-1.361-9.248-1.102-9.726-.956.089.142.153.389.293.479,5.142,3.055,11.397,2.962,16.575,5.891Z" style="fill: url(#radial-gradient-53);"/>
            <path d="M1124.571,559.315c-3.582,1.333,4.589,5.31,6.265,6.092,10.76,5.042,14.504-.41,14.541-.472,1.314-2.92-16.878-6.261-20.806-5.619Z" style="fill: url(#radial-gradient-54);"/>
            <path d="M1797.827,1229.531c-11.801,15.229-12.1,15.329-19.825,18.087-6.322,2.247-8.307,5.135-17.838,19-4.727,6.89-6.492,8.276-11.198,11.963-14.299,11.217-33.62,35.868-34.182,37.895q5.184.058,24.882-18.795c16.07-15.371,30.176-32.561,45.526-48.594q-.058.441-1.403,2.683.615-.435,2.075-2.29c3.618-4.563,14.699-19.541,16.479-24.887-.109-.057-.273-.132-.394-.179q-1.224,1.371-4.122,5.115Z" style="fill: url(#radial-gradient-55);"/>
            <path d="M1398.829,1117.92c-.836-4.379,5.03-10.382-.515-13.202-3.95-2.001-7.846.935-11.757.084-12.726-2.768-21.055-13.817-33.233-17.572-18.15-5.588-36.887-8.813-55.274-13.402-10.681-3.928-11.643-16.269-18.217-23.38-11.227-7.315-19.62-19.179-31.346-25.875-15.34-8.744-34.231-5.761-49.433-14.977-12.032-7.305-20.109-19.689-33.007-25.895-1.875-.903-4.569-1.743-6.617-2.042-62.41-9.396-111.711-16.816-117.283,32.654-18.512-13.16-66.107,7.667-61.712-23.075,2.673-18.596-5.272-32.307-5.378-32.35-14.467-7.326-29.156.283-43.746-.704q4.806-15.944,1.303-23.369,6.312-14.757,8.639-28.148c-2.757-2.416-27.061-22.026-32.25,32.87-8.376-.541-13.753,11.211-23.354,5.708-22.481-12.882-30.149-29.24-32.722-37.848-3.172-10.645,5.793-18.974,5.561-29.041-.137-6.423-8.786-9.553-6.527-16.899,2.94-9.527,20.507-27.423,24.624-30.601,7.352-5.667,35.885.771,36.1.876.772-.63,1.786-1.475,2.547-2.111-2.179-2.394-5.399-3.219-7.872-5.178.204-.94.467-2.19.672-3.135,5.707-3.304,51.029-7.237,51.224-7.132,19.419,10.362,7.578,37.643,26.216,48.446,21.977-23.201-13.324-43.787-9.433-67.162,4.055-24.168,28.207-29.782,41.698-45.221-.3-.032-.315-.032-.336-.022-.589-.672-1.381-1.57-1.986-2.243.117-.882.253-2.042.357-2.909.847-.252,1.965-.588,2.821-.835.099-1.051.251-2.442.352-3.487-.846-.311-1.954-.735-2.784-1.04l4.475-44.309c.346,6.544.336,26.5.326,26.531q2.095-1.348,3.959-30.511c1.623,3.104,4.407,5.556,5.146,9.17,3.976-6.838,2.652-15.792,8.782-21.752.146-.157,26.236-14.326,28.163-14.184q2.421-22.876,15.251-34.871,2.159.11,39.387-21.458c-.378.782-.872,1.822-1.244,2.615,1.917.719,4.632,1.408,6.7,1.35v3.229q-21.552,15.299-21.836,19.767c14.6.252,59.521-25.864,51.497-46.094-6.175,4.139-6.433,11.748-10.136,17.331-4.794-1.339-8.707-2.432-11.947-3.398,3.23-.683,5.693-4.149,5.709-4.191.02-.042.041-.126.051-.173-.031-.031-.042-.073-.067-.1-.273-.068-.373-.063-1.229.074-5.776.903-9.075-.352-10.24-.941-2.862-1.438-3.299-3.114-3.104-5.509.068-.93-.068-1.008-.173-1.081-.042.026-.111.073-.157.099-.3.479-2.112,5.031-.448,8.397-5.603-2.641-6.559-5.488-8.749-12.267-5.268-1.932-5.609-2.358-7.856-5.115,7.887-2.148,13.57-3.687,15.245-11.595q-4.038-3.986-60.188,31.141,38.657-40.2,78.349-52.238c9.026,6.177,49.611-13.947,55.808-25.201q-1.995-4.895.925-12.127c-.547-.84-1.25-1.958-1.802-2.793-3.251-.699-6.49-1.413-9.757-2.075-2.774-.026-2.821-.016-2.842-.016-1.975.194-7.966.788-18.591,7.725-.368-.798-.845-1.875-1.202-2.684,3.245-4.621,4.784-5.22,16.805-9.868-23.307,1.995-46.047,3.939-71.049,6.454,22.975-2.416,42.948-4.217,71.195-6.512.625-.315,1.528-.725,1.891-1.308.541-1.423-8.833-9.49-20.618-6.396q-2.662.683-4.053.22c-.825-2.273,1.034-4.8-.615-7-2.237-2.956-6.633-2.205-8.849-5.194-.925-1.259-.295-2.379,1.476-4.82q2.589-3.613-3.093-13.743-14.289-25.529-21.285-12.168c-1.098,2.075,1.665,4.233-.126,6.292-2.053,2.368-5.767.189-7.731,2.84q-4.449,6.097-5.702,6.475c-7.773,2.368-13.192-3.939-19.951-5.435-1.187-2.111,1.481-15.996,5.593-19.305-3.96-1.324-8.139.599-12.1-.851-.924-.336-1.497-.971-2.73-3.062-.42-.708-1.392-2.379-11.16-5.603-2.18-.725-2.683-.678-4.322-.52-8.927,2.4-18.502.42-27.235,4.053,1.565,8.288-8.613,15.745-1.723,24.405-1.323,4.049-6.606,5.414-6.89,10.172-.336,5.52,5.257,8.744,5.441,14.063.02.221.41,21.584-11.906,24.43-2.693.625-8.817,2.573-7.509,7.09-.594.767-.903,1.05-3.386,2.951-3.267,12.394,4.883,27.87-9.248,37.659-4.416-6.768-12.268-8.712-18.386-13.087,3.319-9.736,1.896-13.286.074-17.776.945-.74,2.542-2.09,3.476-2.831-.147-.514,0-1.58-.147-2.106-1.06-.152-2.499-.252-3.57-.221-5.813-5.613-12.839-.53-19.084-2.221-6.365-1.718-9.61-8.172-15.702-10.314-1.05-.363-2.478-.735-3.566-.914-5.567-.94-9.542,3.162-14.363,4.538q-1.68-1.375-3.802-14.089-.756-4.428-11.207-5.252c-2.363-13.524,30.611-38.001,44.691-48.457-1.623-4.301-6.334-2.4-9.028-4.527q27.393-4.873,42.984-21.485c-10.608,1.849-12.808,2.238-21.426-2.662,10.194-3.682,23.344,2.741,31.079-9.174-.788-.552-2.044-.998-2.999-1.056.042-.063,5.11-6.197,10.44-2.814q17.771-6.418,22.44-10.519c1.013-.883,2.211-2.243,2.899-3.388,1.902-3.225-1.244-6.686.479-9.92,1.585-2.978,5.33-2.694,7.425-4.9,1.155-1.476,1.35-3.361,2.185-4.984-.163-.151-15.124-15.424-20.156,6.223-9.21,5.299-15.828,26.873-27.025,16.874.982-6.649,14.431-10.934,8.145-17.524-7.131,2.689-9.994,9.873-15.266,14.526-1.261-3.587,6.002-13.061,6.081-13.151q-.378-.147-6.753-.399,11.033-17.776,11.044-19.935c-.489-.374-1.176-.861-1.665-1.218q6.302-9.737,35.71-27.067-2.048-.242-5.341.352c-23.532,5.509-55.367,49.68-55.603,50.106.236.504.556,1.149.798,1.648,2.51-.01,4.973-.556,7.478-.708.111.457.257,1.071.384,1.534-5.226,2.594-6.05,3.062-8.445,5.352l-.058,1.259h.032c.446.094,1.055.226,1.507.337-5.021,8.618-15.976,11.553-20.071,21.064q-3.844-3.991,3.34-11.669-4.117-1.061-17.53,9.5c-.74.578-5.214,3.43-21.762,2.647-1.071-1.565-.876-3.634-2.017-5.177-13.381,3.439-17.361,11.213-25.307,26.699-1.47-3.907,1.964-7.142,1.518-10.908-7.221,1.156-13.135,7.074-21.022,5.893,3.297-3.246,8.618-4.438,9.862-9.748-.416-.226-.956-.524-1.371-.745-1.781.966-2.054,1.119-7.179.562-.577-.819-1.47-1.843-2.227-2.515-3.649.766-5.719,3.886-8.581,5.829.525-.998,1.345-2.274,2.033-3.151q-1.974,1.434-5.184,4.527,1.671-3.481,6.738-9.731-8.722,8.024-24.656,21.557l-.047.026c5.037-4.809,10.477-9.179,15.592-13.911-.057.031-11.433,8.571-25.664,22.776.477-.872,1.239-1.974,1.858-2.741-8.812,9.894-20.549,23.075-29.366,32.969-38.064,49.553-38.783,50.504-55.608,78.447l.131-.221c.262-.382.592-.902.845-1.297q-11.265,28.385-12.646,36.12c-.725,2.248-1.691,5.247-2.446,7.484.519.856,1.202,1.98,1.722,2.831q-3.571,11.302-7.436,30.627c-.94,4.616.131,8.859,1.554,13.049-.55-.199-1.454-.414-2.83-.514-.652-.052-.998-.162-1.224-.404-.21-.215-.289-.289-.678-1.67-.179-.698-.887-3.024-1.47-3.156-.011.01-.022.026-.047.031-.011.041-1.423,6.674.173,12.121,1.313,4.489,4.496,3.865,4.543,3.859.835-.257,1.612-1.086,2.111-2.279.436-1.066.503-2.262.514-2.778.047-.74-.137-1.46-.173-2.206-.011-.073.026-.146.026-.226,1.561,4.37,3.125,8.744,2.862,13.444-1.538-.866-3.618-1.97-5.194-2.746-18.979,23.637-25.595,142.197-12.96,164.333q1.627.273,29.135,56.616c-1.964.022-4.553.1-6.517.206,3.33,6.958,27.586,38.31,27.801,38.567,2.217-3.224,4.496-6.569-6.653-22.414-5.079-7.199-10.808-15.35-20.524-54.742,12.168,8.89,13.461,14.699,15.077,22.046,1.157,5.236,2.459,11.154,4.785,14.856,4.962,7.925,11.048,15.036,16.332,22.734,6.843,9.983,18.512,15.571,24.241,26.547,4.638,8.838,2.421,20.67,11.948,27.366,1.292.914,3.345,1.638,4.815,2.217,2.694,1.039,6.108,2.961,8.918,3.686,9.789,2.52,19.83,4.075,29.671,6.459,10.078,2.448,20.786-3.35,30.654,2.274q22.609,12.883,30.553,13.733c1.193.126,2.789.315,3.971.483,35.521,4.963,50.231,48.95,89.141,47.559,17.308-28.879,27.98,5.766,31.781,21.993q1.193,5.126-8.544,26.494c-.115.352-9.531,38.862-5.493,46.051.651,1.182,1.485,2.778,2.237,3.892,12.761,18.936,65.145,70.733,65.566,71.101,12.787,11.039,30.122,13.553,43.609,23.243,10.276,7.374,17.965,21.873,21.662,40.826.173.856,20.25,90.9,55.184,140.065,44.302,62.362,87.18,55.467,87.57,55.341q-41.277-21.259-37.386-38.736-5.729-6.117-16.564-35.936,1.681-.547,9.463-.293-.067-.809-9.463-13.849,7.243-6.445,6.701-11.585c.546-.33,1.266-.787,1.816-1.124,12.814,3.924,17.1-6.675,13.786-11.517l-3.765-5.294c29.136-.793,41.54-71.305,41.635-72.015,4.191-9.001,15.176-14.337,19.709-16.222,10.34-4.29,10.487-16.437,17.792-23.085,3.288-2.978,6.244-3.051,8.713-2.726,4.263.546,4.605.588,5.156-3.439,1.187-8.839.378-17.729.809-26.594.242-4.958-2.683-10.046.604-14.888,3.812-5.577,5.215-7.667,2.536-11.349-.494-.678-1.03-1.713-1.223-2.521,24.388-8.885,33.053-35.306,33.09-35.547.021-.295.041-.704-.015-.998-.526-2.925-2.911-5.057-3.456-7.982ZM787.282,566.824c8.629-2.825,17.734-5.524,27.114-8.103-9.342,2.579-18.437,5.283-27.114,8.103ZM1310.99,1224.28c-.457-4.28-1.901-18.323-4.144-43.136,1.339,14.484,2.721,28.894,4.259,44.067-.048-.31-.095-.63-.115-.93Z" style="fill: url(#radial-gradient-56);"/>
            <path d="M1063.877,1069.857c11.002-1.381,22.22-2.736,33.989-4.075-10.855,1.261-22.084,2.599-33.989,4.075Z" style="fill: url(#radial-gradient-57);"/>
            <path d="M1299.248,1089.314c.057.803.126,1.597.184,2.385-.058-.783-.127-1.602-.184-2.385Z" style="fill: url(#radial-gradient-58);"/>
            <path d="M1095.744,949.644c-3.345,2.263.977,6.585,5.068,7.269,2.909.482,12.231-.814,12.619-1.765.22-.483-.477-1.629-7.383-3.782-7.646-2.378-8.765-2.106-10.304-1.722Z" style="fill: url(#radial-gradient-59);"/>
          </g>
        </g>
        <g style="mix-blend-mode: screen;">
          <rect x="391.763" y="960.283" width="3.007" height="383.332" style="fill: url(#linear-gradient);"/>
          <rect x="2159.458" y="245.701" width="3.007" height="296.774" style="fill: url(#linear-gradient-2);"/>
          <rect x="2088.746" y="266.078" width="3.007" height="343.145" style="fill: url(#linear-gradient-3);"/>
          <rect x="2018.04" y="161.111" width="3.007" height="426.611" style="fill: url(#linear-gradient-4);"/>
          <rect x="1947.333" y="239.96" width="3.007" height="353.576" style="fill: url(#linear-gradient-5);"/>
          <rect x="1876.627" y="421.771" width="3.007" height="194.758" style="fill: url(#linear-gradient-6);"/>
          <rect x="1805.92" y="327.731" width="3.007" height="285.18" style="fill: url(#linear-gradient-7);"/>
          <rect x="1735.208" y="281.395" width="3.007" height="500.806" style="fill: url(#linear-gradient-8);"/>
          <rect x="1664.502" y="261.159" width="3.007" height="760.483" style="fill: url(#linear-gradient-9);"/>
          <rect x="1593.795" y="363.877" width="3.007" height="1066.531" style="fill: url(#linear-gradient-10);"/>
          <rect x="1523.089" y="828.569" width="3.007" height="426.614" style="fill: url(#linear-gradient-11);"/>
          <rect x="1452.382" y="718.404" width="3.007" height="500.806" style="fill: url(#linear-gradient-12);"/>
          <rect x="1381.67" y="633.179" width="3.007" height="459.072" style="fill: url(#linear-gradient-13);"/>
          <rect x="1310.964" y="642.524" width="3.007" height="500.806" style="fill: url(#linear-gradient-14);"/>
          <rect x="1240.258" y="632.36" width="3.007" height="219.49" style="fill: url(#linear-gradient-15);"/>
          <rect x="1169.551" y="572.337" width="3.007" height="468.345" style="fill: url(#linear-gradient-16);"/>
          <rect x="1098.839" y="810.374" width="3.007" height="208.669" style="fill: url(#linear-gradient-17);"/>
          <rect x="1028.133" y="777.843" width="3.007" height="398.79" style="fill: url(#linear-gradient-18);"/>
          <rect x="957.426" y="747.914" width="3.007" height="593.548" style="fill: url(#linear-gradient-19);"/>
          <rect x="886.72" y="960.283" width="3.007" height="383.332" style="fill: url(#linear-gradient-20);"/>
          <rect x="816.014" y="1117.383" width="3.007" height="142.202" style="fill: url(#linear-gradient-21);"/>
          <rect x="745.301" y="740.326" width="3.007" height="853.225" style="fill: url(#linear-gradient-22);"/>
          <rect x="674.595" y="962.626" width="3.007" height="290.59" style="fill: url(#linear-gradient-23);"/>
          <rect x="603.888" y="891.335" width="3.007" height="581.182" style="fill: url(#linear-gradient-24);"/>
          <rect x="533.182" y="947.262" width="3.007" height="587.364" style="fill: url(#linear-gradient-25);"/>
          <rect x="462.476" y="930.306" width="3.007" height="383.332" style="fill: url(#linear-gradient-26);"/>
          <rect x="378.232" y="1093.87" width="30.07" height="116.161" style="fill: url(#linear-gradient-27);"/>
          <rect x="2145.927" y="349.124" width="30.07" height="89.932" style="fill: url(#linear-gradient-28);"/>
          <rect x="2075.214" y="385.657" width="30.07" height="103.984" style="fill: url(#linear-gradient-29);"/>
          <rect x="2004.508" y="309.78" width="30.07" height="129.276" style="fill: url(#linear-gradient-30);"/>
          <rect x="1933.802" y="363.175" width="30.07" height="107.147" style="fill: url(#linear-gradient-31);"/>
          <rect x="1863.095" y="489.641" width="30.07" height="59.019" style="fill: url(#linear-gradient-32);"/>
          <rect x="1792.389" y="427.11" width="30.07" height="86.42" style="fill: url(#linear-gradient-33);"/>
          <rect x="1721.676" y="455.917" width="30.07" height="151.758" style="fill: url(#linear-gradient-34);"/>
          <rect x="1650.97" y="526.177" width="30.07" height="230.449" style="fill: url(#linear-gradient-35);"/>
          <rect x="1580.264" y="735.548" width="30.07" height="323.192" style="fill: url(#linear-gradient-36);"/>
          <rect x="1509.558" y="977.238" width="30.07" height="129.276" style="fill: url(#linear-gradient-37);"/>
          <rect x="1438.851" y="892.927" width="30.07" height="151.761" style="fill: url(#linear-gradient-38);"/>
          <rect x="1368.139" y="793.16" width="30.07" height="139.114" style="fill: url(#linear-gradient-39);"/>
          <rect x="1297.432" y="817.049" width="30.07" height="151.758" style="fill: url(#linear-gradient-40);"/>
          <rect x="1226.726" y="708.849" width="30.07" height="66.513" style="fill: url(#linear-gradient-41);"/>
          <rect x="1156.019" y="735.548" width="30.07" height="141.924" style="fill: url(#linear-gradient-42);"/>
          <rect x="1085.307" y="883.092" width="30.07" height="63.233" style="fill: url(#linear-gradient-43);"/>
          <rect x="1014.601" y="916.815" width="30.07" height="120.845" style="fill: url(#linear-gradient-44);"/>
          <rect x="943.894" y="954.756" width="30.07" height="179.861" style="fill: url(#linear-gradient-45);"/>
          <rect x="873.188" y="1093.87" width="30.07" height="116.161" style="fill: url(#linear-gradient-46);"/>
          <rect x="802.482" y="1166.937" width="30.07" height="43.094" style="fill: url(#linear-gradient-47);"/>
          <rect x="731.77" y="1037.661" width="30.07" height="258.552" style="fill: url(#linear-gradient-48);"/>
          <rect x="661.063" y="1063.89" width="30.07" height="88.059" style="fill: url(#linear-gradient-49);"/>
          <rect x="590.357" y="1093.87" width="30.07" height="176.114" style="fill: url(#linear-gradient-50);"/>
          <rect x="519.65" y="1151.949" width="30.07" height="177.99" style="fill: url(#linear-gradient-51);"/>
          <rect x="448.944" y="1063.89" width="30.07" height="116.162" style="fill: url(#linear-gradient-52);"/>
        </g>
        <g style="clip-path: url(#clippath);">
          <g style="mix-blend-mode: screen;">
            <path d="M2813.583,1791.591H-469.624V-79.452h3283.207v1871.043ZM-466.459,1788.427h3276.878V-76.287H-466.459v1864.714Z" style="fill: url(#radial-gradient-60);"/>
            <rect x="-468.042" y="1554.943" width="3280.042" height="3.165" style="fill: url(#radial-gradient-61);"/>
            <rect x="-468.042" y="1321.456" width="3280.042" height="3.165" style="fill: url(#radial-gradient-62);"/>
            <rect x="-468.042" y="1087.973" width="3280.042" height="3.165" style="fill: url(#radial-gradient-63);"/>
            <rect x="-468.042" y="854.486" width="3280.042" height="3.165" style="fill: url(#radial-gradient-64);"/>
            <rect x="-468.042" y="621.002" width="3280.042" height="3.165" style="fill: url(#radial-gradient-65);"/>
            <rect x="-468.042" y="387.516" width="3280.042" height="3.165" style="fill: url(#radial-gradient-66);"/>
            <rect x="-468.042" y="154.032" width="3280.042" height="3.165" style="fill: url(#radial-gradient-67);"/>
            <rect x="2558.107" y="-77.869" width="3.165" height="1867.878" style="fill: url(#radial-gradient-68);"/>
            <rect x="2305.796" y="-77.869" width="3.165" height="1867.878" style="fill: url(#radial-gradient-69);"/>
            <rect x="2053.485" y="-77.869" width="3.165" height="1867.878" style="fill: url(#radial-gradient-70);"/>
            <rect x="1801.174" y="-77.869" width="3.165" height="1867.878" style="fill: url(#radial-gradient-71);"/>
            <rect x="1548.866" y="-77.869" width="3.165" height="1867.878" style="fill: url(#radial-gradient-72);"/>
            <rect x="1296.554" y="-77.869" width="3.165" height="1867.878" style="fill: url(#radial-gradient-73);"/>
            <rect x="1044.243" y="-77.869" width="3.165" height="1867.878" style="fill: url(#radial-gradient-74);"/>
            <rect x="791.932" y="-77.869" width="3.165" height="1867.878" style="fill: url(#radial-gradient-75);"/>
            <rect x="539.621" y="-77.869" width="3.165" height="1867.878" style="fill: url(#radial-gradient-76);"/>
            <rect x="287.31" y="-77.869" width="3.165" height="1867.878" style="fill: url(#radial-gradient-77);"/>
            <rect x="34.999" y="-77.869" width="3.165" height="1867.878" style="fill: url(#radial-gradient-78);"/>
            <rect x="-217.313" y="-77.869" width="3.165" height="1867.878" style="fill: url(#radial-gradient-79);"/>
          </g>
        </g>
      </g>
    </g>
  </g>
</svg>